<svg xmlns="http://www.w3.org/2000/svg" width="54.902" height="55.992" viewBox="0 0 54.902 55.992">
  <g id="Group_2343" data-name="Group 2343" transform="translate(-481.856 -311.822)">
    <path id="Path_5621" data-name="Path 5621" d="M535.547,376.9c-.527-.543-1.078-1.064-1.605-1.607a3.663,3.663,0,0,0-4.149-.962c-.146.051-.4.072-.481-.012-1.152-1.126-2.282-2.272-3.417-3.413a3.845,3.845,0,0,0-1.717-6.568,3.681,3.681,0,0,0-.427-2.933,3.915,3.915,0,0,0-2.388-1.74c.355-2.414-.332-3.56-2.834-4.771.013-.09.023-.189.041-.287a3.745,3.745,0,0,0-3.338-4.437c-1.275-.147-2.544-.364-3.81-.58-1.612-.274-3.215-.6-4.828-.86a3.406,3.406,0,0,0-2.426.41,1.158,1.158,0,0,1-.752.149,3.758,3.758,0,0,0-4.556,4.113c.017.2.041.394.064.621a3.769,3.769,0,0,0-2.387,1.73,3.968,3.968,0,0,0-.429,2.972A3.788,3.788,0,0,0,493.438,361a3.84,3.84,0,0,0,.324,3.5c-2.831,1.608-3.219,3.6-1.268,6.443-1.06,1.062-2.133,2.124-3.187,3.2a.67.67,0,0,1-.793.2,3.508,3.508,0,0,0-3.589.792c-.663.608-1.293,1.254-1.914,1.905a3.545,3.545,0,0,0,.018,5.254c.542.56,6.212,6.174,9.046,8.977a2.013,2.013,0,0,0,.231.285q1.1,1.115,2.213,2.214a3.63,3.63,0,0,0,5.135.015c.526-.515,1.043-1.04,1.564-1.561,1.54-1.54,1.774-2.774.877-4.821,1.344-1.347,2.661-2.691,4.013-4a1.41,1.41,0,0,1,.884-.34c1.592-.025,3.186,0,4.779.021a.777.777,0,0,1,.461.24c1.311,1.294,2.618,2.591,3.9,3.909a.7.7,0,0,1,.122.609,3.573,3.573,0,0,0,.856,4.008c.622.65,1.258,1.289,1.91,1.909a3.609,3.609,0,0,0,5-.031q5.771-5.73,11.511-11.493A3.536,3.536,0,0,0,535.547,376.9ZM505.6,350.741l6.014,1.084c-.949.957-1.8,1.822-2.664,2.674a.344.344,0,0,1-.324.027,6.289,6.289,0,0,1-3.025-3.4A2.17,2.17,0,0,1,505.6,350.741Zm-3.328.68a1.065,1.065,0,0,1,1.372.739,8.874,8.874,0,0,0,4.51,4.551c.707.339.966.651.889,1.3a1.612,1.612,0,0,1-1.246,1.351c-.12.021-.244.023-.366.033l-.048.088a3.882,3.882,0,0,1-1-.517c-1.67-1.624-3.332-3.258-4.946-4.938A1.533,1.533,0,0,1,502.273,351.421Zm-3.626,5.127a1.581,1.581,0,0,1,2.215.013c1.321,1.283,2.626,2.581,3.9,3.907a3.666,3.666,0,0,1,.527.932,1.7,1.7,0,0,1-.885,1.6,1.483,1.483,0,0,1-1.775-.216q-2.055-1.979-4.036-4.034A1.5,1.5,0,0,1,498.648,356.548Zm-2.817,4.7a1.577,1.577,0,0,1,2.124-.025q1.595,1.519,3.109,3.12a3.9,3.9,0,0,1,.5,1,1.744,1.744,0,0,1-.944,1.426,1.455,1.455,0,0,1-1.716-.177c-1.1-1.034-2.171-2.1-3.2-3.2A1.484,1.484,0,0,1,495.831,361.246Zm-1.647,5.5a1.515,1.515,0,0,1,1.783.073,10.609,10.609,0,0,1,1.423,1.43,1.381,1.381,0,0,1,.139,1.609,1.539,1.539,0,0,1-1.472.868c-.067-.011-.168-.026-.269-.044a4.533,4.533,0,0,1-2.329-2.358A1.6,1.6,0,0,1,494.184,366.742Zm5.567,23.886c-.506.507-1.008,1.018-1.521,1.517a1.458,1.458,0,0,1-2.265,0c-.18-.176-.357-.355-.535-.533a2.22,2.22,0,0,0-.267-.33c-.717-.73-9.926-9.821-10.634-10.559a1.4,1.4,0,0,1-.007-2.125c.6-.639,1.227-1.262,1.869-1.863a1.333,1.333,0,0,1,1.926-.03c.28.237.56.478.819.737q5.325,5.35,10.641,10.707C500.709,389.093,500.7,389.68,499.751,390.628Zm10.221-9.679a17.926,17.926,0,0,0-3.6.043,3.843,3.843,0,0,0-1.894,1c-1.327,1.209-2.557,2.524-3.8,3.767l-9.937-9.968c1.029-1.034,2.132-2.151,3.251-3.25a.461.461,0,0,1,.415-.033,3.814,3.814,0,0,0,5.5-3.337,3.915,3.915,0,0,0,3.807-3.786,3.894,3.894,0,0,0,3.784-3.753,3.853,3.853,0,0,0,3.2-5.8c1.033-1.03,2.058-2.087,3.123-3.1a1.6,1.6,0,0,1,2.177.051,1.537,1.537,0,0,1,.027,2.209c-.619.68-1.324,1.284-1.929,1.975a1.552,1.552,0,0,0-.4,1.02,1.04,1.04,0,0,0,1.726.656c.38-.307.705-.682,1.058-1.023a1.634,1.634,0,0,1,2.353-.106,1.59,1.59,0,0,1-.115,2.344c-.585.6-1.192,1.182-1.777,1.782s-.614,1.189-.125,1.672a1.129,1.129,0,0,0,1.678-.166c.308-.3.6-.617.916-.907a1.635,1.635,0,0,1,2.224-.04,1.569,1.569,0,0,1,.034,2.257c-.439.485-.919.933-1.382,1.4-.9.9-1.046,1.469-.512,2.022s1.138.4,2.033-.47a3.758,3.758,0,0,1,.944-.762,1.506,1.506,0,0,1,1.906.519,1.449,1.449,0,0,1-.121,1.962c-.678.737-9.241,9.185-9.949,9.9a3.168,3.168,0,0,0-.536.672A4.681,4.681,0,0,1,509.972,380.949Zm7.822,4.778-3.28-3.29c.426-.495.864-1.028,1.328-1.537a2.221,2.221,0,0,0,.226-.3l.065-.061,3.127-3.091a1.086,1.086,0,0,0,.233-.23c2.221-2.195,4.735-4.679,4.8-4.743l3.354,3.362Zm16.253-5.066q-5.717,5.731-11.464,11.432a4.86,4.86,0,0,1-1.083.608,6.161,6.161,0,0,1-1.078-.62c-.61-.542-1.177-1.135-1.743-1.725a1.426,1.426,0,0,1,.022-2.256q5.678-5.685,11.369-11.354a1.468,1.468,0,0,1,2.223-.03q.883.851,1.737,1.732A1.419,1.419,0,0,1,534.048,380.66Z" transform="translate(0 -27.029)" fill="#185fab"/>
    <path id="Path_5622" data-name="Path 5622" d="M645.768,319.7c1.3-1.276,2.338-2.272,3.609-3.573,0,0,.1-.14.516-.59a.6.6,0,0,0,0-.963,4.249,4.249,0,0,0-.729-.617c-.383-.216-.669-.018-1.028.337-1.308,1.294-2.618,2.586-3.9,3.9a1.023,1.023,0,0,0-.006,1.576A1.071,1.071,0,0,0,645.768,319.7Z" transform="translate(-122.148 -0.863)" fill="#185fab"/>
    <path id="Path_5623" data-name="Path 5623" d="M521.376,319.26a1.105,1.105,0,0,0,1.634.107,1.085,1.085,0,0,0-.1-1.626q-1.875-1.9-3.78-3.763c-.206-.2-.62-.556-1.065-.374-.54.411-.54.345-.739.671-.28.458.038.87.315,1.263C518.886,316.779,520.126,318.025,521.376,319.26Z" transform="translate(-26.652 -0.478)" fill="#185fab"/>
    <path id="Path_5624" data-name="Path 5624" d="M589.677,319.8a1.091,1.091,0,0,0,1.066-1.176c.01-.755,0-1.51,0-2.266,0-.776.006-1.551,0-2.327a1.091,1.091,0,0,0-1.093-1.207A1.079,1.079,0,0,0,588.577,314q-.024,2.327,0,4.654A1.079,1.079,0,0,0,589.677,319.8Z" transform="translate(-80.457 -1)" fill="#185fab"/>
  </g>
</svg>
